<?xml version="1.0" encoding="UTF-8"?>
<svg id="Layer_2" xmlns="http://www.w3.org/2000/svg" version="1.1" viewBox="0 0 841.9 595.3">
  <!-- Generator: Adobe Illustrator 30.2.1, SVG Export Plug-In . SVG Version: 2.1.1 Build 1)  -->
  <defs>
    <style>
      .st0 {
        fill: #fff;
      }
    </style>
  </defs>
  <path class="st0" d="M1657.2,184c-17.4-1.1-33.8-.4-49.2,2v-60.8h-125.2V0h-77.7v125.2h-125.2v77.7h125.2v125.2h61.3c-4.6,21-5,36.8-5.1,40.5l-.3,30.6,76.5.6.7-30.2c0-.5,1.6-54.6,35-85.8,18.6-17.4,45.2-25.1,79.3-23l27.1,1.7v-77l-22.4-1.4ZM1467.1,187.2h-46.2v-46.2h46.2v46.2ZM1520.9,227.5c-17.2,16-29.4,34.4-38.1,52.5v-77.1h72.9c-12.6,6.6-24.3,14.8-34.8,24.6Z"/>
  <path class="st0" d="M661.3,277.2c-22.4-1.4-43.5-.5-63.3,2.6v-78.3h-161.2V40.4h-100v161.1h-161.1v100h161.1v161.1h78.9c-5.9,27.1-6.5,47.4-6.5,52.1l-.4,39.3,98.4.7.9-38.8c0-.7,2.1-70.3,45.1-110.4,24-22.3,58.2-32.3,102-29.7l34.9,2.1v-99.2l-28.9-1.8ZM416.5,281.3h-59.4v-59.5h59.4v59.5ZM485.8,333.2c-22.1,20.6-37.8,44.3-49,67.5v-99.2h93.8c-16.3,8.4-31.2,19-44.8,31.7Z"/>
</svg>